<svg xmlns="http://www.w3.org/2000/svg" viewBox="0 0 1080 1920" width="1080" height="1920">
  <defs>
    <linearGradient id="bg" x1="0" y1="0" x2="0" y2="1">
      <stop offset="0" stop-color="#0d0b08"/>
      <stop offset="1" stop-color="#0b0a08"/>
    </linearGradient>
    <linearGradient id="gold" x1="0" y1="0" x2="1" y2="0">
      <stop offset="0" stop-color="#b08d2e"/>
      <stop offset="1" stop-color="#d4af37"/>
    </linearGradient>
  </defs>
  <rect width="1080" height="1920" fill="url(#bg)"/>
  <rect width="1080" height="6" fill="#d4af37"/>
  <rect y="1914" width="1080" height="6" fill="#d4af37"/>
  <rect x="26" y="26" width="1028" height="1868" fill="none" stroke="#d4af37" stroke-opacity=".28"/>
  <rect x="76" y="92" width="54" height="54" fill="none" stroke="#d4af37"/>
  <text x="103" y="130" fill="#d4af37" font-family="Georgia, serif" font-size="26" text-anchor="middle">F</text>
  <text x="152" y="112" fill="#8d8168" font-family="Helvetica, Arial" font-size="18" letter-spacing="3">COMPANY MARKET INTELLIGENCE</text>
  <text x="152" y="156" fill="#f3ecdd" font-family="Songti SC, Georgia, serif" font-size="40" font-weight="700">AI 金融早报</text>
  <rect x="76" y="230" width="928" height="2" fill="#d4af37" fill-opacity=".45"/>
  <text x="76" y="300" fill="#d4af37" font-family="Helvetica, Arial" font-size="20" font-weight="700" letter-spacing="5">MARKET THESIS</text>
  <text x="76" y="386" fill="#f3ecdd" font-family="Songti SC, Georgia, serif" font-size="70" font-weight="700">风险偏好回到政策</text>
  <text x="76" y="472" fill="#f3ecdd" font-family="Songti SC, Georgia, serif" font-size="70" font-weight="700">与算力主线</text>
  <text x="76" y="540" fill="#d8cdb5" font-family="Helvetica, Arial" font-size="28">隔夜海外科技股修复，资金沿高确定性产业链轮动。</text>
  <g>
    <rect x="76" y="600" width="296" height="120" fill="#d4af37" fill-opacity=".06" stroke="#f3ecdd" stroke-opacity=".13"/>
    <rect x="76" y="600" width="34" height="3" fill="#d4af37"/>
    <text x="94" y="640" fill="#8d8168" font-family="Helvetica, Arial" font-size="16">沪深300期指</text>
    <text x="94" y="686" fill="#e05a4e" font-family="Helvetica, Arial" font-size="32" font-weight="700">+0.42%</text>
    <rect x="392" y="600" width="296" height="120" fill="#d4af37" fill-opacity=".06" stroke="#f3ecdd" stroke-opacity=".13"/>
    <rect x="392" y="600" width="34" height="3" fill="#d4af37"/>
    <text x="410" y="640" fill="#8d8168" font-family="Helvetica, Arial" font-size="16">离岸人民币</text>
    <text x="410" y="686" fill="#f3ecdd" font-family="Helvetica, Arial" font-size="32" font-weight="700">7.18</text>
    <rect x="708" y="600" width="296" height="120" fill="#d4af37" fill-opacity=".06" stroke="#f3ecdd" stroke-opacity=".13"/>
    <rect x="708" y="600" width="34" height="3" fill="#d4af37"/>
    <text x="726" y="640" fill="#8d8168" font-family="Helvetica, Arial" font-size="16">美债10Y</text>
    <text x="726" y="686" fill="#2ba66f" font-family="Helvetica, Arial" font-size="32" font-weight="700">4.21%</text>
  </g>
  <rect x="76" y="780" width="560" height="620" fill="#ffffff" fill-opacity=".02" stroke="#f3ecdd" stroke-opacity=".13"/>
  <text x="100" y="830" fill="#8d8168" font-family="Helvetica, Arial" font-size="14" letter-spacing="3">LEAD STORY</text>
  <text x="100" y="906" fill="#f3ecdd" font-family="Songti SC, Georgia, serif" font-size="40" font-weight="700">多地发布数据中心</text>
  <text x="100" y="962" fill="#f3ecdd" font-family="Songti SC, Georgia, serif" font-size="40" font-weight="700">能效新规</text>
  <text x="100" y="1030" fill="#d8cdb5" font-family="Helvetica, Arial" font-size="24">算力基建进入精细化扩张阶段，关注</text>
  <text x="100" y="1068" fill="#d8cdb5" font-family="Helvetica, Arial" font-size="24">液冷渗透率与国产替代节奏。</text>
  <rect x="660" y="780" width="344" height="300" fill="#ffffff" fill-opacity=".02" stroke="#f3ecdd" stroke-opacity=".13"/>
  <text x="684" y="830" fill="#8d8168" font-family="Helvetica, Arial" font-size="14" letter-spacing="3">TOP STORIES</text>
  <rect x="684" y="856" width="296" height="90" fill="#d4af37" fill-opacity=".07"/>
  <rect x="684" y="964" width="296" height="90" fill="#d4af37" fill-opacity=".07"/>
  <rect x="660" y="1100" width="344" height="300" fill="#ffffff" fill-opacity=".02" stroke="#f3ecdd" stroke-opacity=".13"/>
  <text x="684" y="1150" fill="#8d8168" font-family="Helvetica, Arial" font-size="14" letter-spacing="3">SECTOR WATCH</text>
  <rect x="76" y="1560" width="620" height="130" fill="#060504" fill-opacity=".85"/>
  <rect x="76" y="1560" width="4" height="130" fill="#d4af37"/>
  <text x="104" y="1616" fill="#f3ecdd" font-family="Songti SC, Georgia, serif" font-size="36" font-weight="700">资金是否继续确认</text>
  <text x="104" y="1664" fill="#f3ecdd" font-family="Songti SC, Georgia, serif" font-size="36" font-weight="700">算力主线</text>
  <rect x="76" y="1780" width="928" height="2" fill="#f3ecdd" fill-opacity=".14"/>
  <rect x="76" y="1780" width="300" height="2" fill="url(#gold)"/>
</svg>
